<?xml version="1.0" encoding="UTF-8"?>
<svg width="200" height="200" viewBox="0 0 200 200" xmlns="http://www.w3.org/2000/svg">
  <!-- Fond rond bleu -->
  <circle cx="100" cy="100" r="95" fill="#667eea" stroke="#5568d3" stroke-width="3"/>

  <!-- Hibou stylisé -->
  <!-- Corps -->
  <ellipse cx="100" cy="120" rx="45" ry="50" fill="#ffffff" opacity="0.95"/>

  <!-- Yeux -->
  <circle cx="85" cy="105" r="15" fill="#2d3748"/>
  <circle cx="115" cy="105" r="15" fill="#2d3748"/>
  <circle cx="88" cy="102" r="6" fill="#ffffff"/>
  <circle cx="118" cy="102" r="6" fill="#ffffff"/>

  <!-- Bec -->
  <polygon points="100,115 95,125 105,125" fill="#f6ad55"/>

  <!-- Oreilles/plumes -->
  <ellipse cx="70" cy="85" rx="12" ry="25" fill="#ffffff" transform="rotate(-25 70 85)"/>
  <ellipse cx="130" cy="85" rx="12" ry="25" fill="#ffffff" transform="rotate(25 130 85)"/>

  <!-- Ailes -->
  <ellipse cx="65" cy="130" rx="15" ry="30" fill="#e2e8f0" opacity="0.8" transform="rotate(-20 65 130)"/>
  <ellipse cx="135" cy="130" rx="15" ry="30" fill="#e2e8f0" opacity="0.8" transform="rotate(20 135 130)"/>

  <!-- Badge sécurité -->
  <circle cx="140" cy="70" r="22" fill="#48bb78" stroke="#38a169" stroke-width="2"/>
  <path d="M 140 60 L 140 80 M 130 70 L 150 70" stroke="#ffffff" stroke-width="3" stroke-linecap="round"/>
  <circle cx="140" cy="70" r="8" fill="none" stroke="#ffffff" stroke-width="2"/>

  <!-- Texte -->
  <text x="100" y="185" font-family="Arial, sans-serif" font-size="18" font-weight="bold" fill="#ffffff" text-anchor="middle">OWLCUB</text>
</svg>
